<svg preserveAspectRatio="none" width="100%" height="100%" overflow="visible" style="display: block;" viewBox="0 0 114 113" fill="none" xmlns="http://www.w3.org/2000/svg">
<g id="Vector">
<path fill-rule="evenodd" clip-rule="evenodd" d="M91.5258 18.3429L91.5272 18.3443C91.5268 18.344 91.5261 18.3433 91.5258 18.3429Z" fill="var(--fill-0, #CABCAC)" fill-opacity="0.61"/>
<path fill-rule="evenodd" clip-rule="evenodd" d="M76.153 108.073L76.5637 109.171L85.0634 105.052L85.0809 105.042C104.492 94.1249 113.995 78.2064 114 56.0856C114.006 25.247 88.0879 0 57.2153 0C26.2695 0.404821 0.0102359 25.594 3.5123e-06 56.3875C-0.00792604 80.2491 13.4111 99.9273 36.8843 108.727L38.6931 109.381L39.0477 108.257L39.5387 106.777L56.9398 44.0939L75.5288 106.253L76.153 108.073ZM91.5272 18.3443L91.5258 18.3429L91.5247 18.3418C91.5238 18.3407 91.5227 18.3394 91.522 18.3382C91.5211 18.3369 91.5204 18.3356 91.5198 18.3342C91.5196 18.3337 91.5194 18.3333 91.5192 18.3329L91.5189 18.332C82.8518 7.95889 70.6348 1.50065 57.0961 1.50065C56.6716 1.50065 56.2484 1.50704 55.8266 1.51973C52.6802 1.6144 49.6077 2.05964 46.6429 2.81893C38.7125 4.8474 31.5324 9.13957 25.6605 15.0652C24.4595 16.2711 23.3137 17.5446 22.2266 18.8811C20.937 20.4667 19.7303 22.141 18.6126 23.8963C18.5953 23.9235 18.578 23.9507 18.5607 23.978C16.0602 27.9239 14.0061 32.2694 12.5013 36.9122C12.4442 37.0875 12.3879 37.2632 12.3323 37.4393C11.6405 39.6313 11.0688 41.8874 10.6349 44.2005C9.92487 47.9289 9.54978 51.795 9.54978 55.7676C9.54978 66.6529 12.3644 76.7937 17.2035 85.2915C17.2935 85.4495 17.3843 85.607 17.4757 85.764C19.9405 90.0029 22.9144 93.8157 26.2901 97.0959L26.3578 97.1617C29.8127 100.522 33.527 103.839 37.7326 105.955L38.3419 103.9L56.3995 42.1365L54.3365 36.2109H62.575L83.0751 99.8123H83.0706L83.4368 100.949C98.3947 88.3784 104.563 75.2386 104.647 55.7676C104.713 40.3002 99.6636 28.097 91.5457 18.3631C91.5419 18.3573 91.5372 18.3532 91.5327 18.3494L91.5321 18.3488L91.5307 18.3476C91.53 18.347 91.5293 18.3464 91.5287 18.3458L91.5272 18.3443Z" fill="var(--fill-0, #CABCAC)" fill-opacity="0.61"/>
</g>
</svg>
