<svg preserveAspectRatio="none" width="100%" height="100%" overflow="visible" style="display: block;" viewBox="0 0 193.994 145.441" fill="none" xmlns="http://www.w3.org/2000/svg">
<g id="two line logo">
<g id="Vector">
<path fill-rule="evenodd" clip-rule="evenodd" d="M37.0112 1.16976L25.8694 68.1595L27.045 75.2667H22.8684L15.2003 30.3666L5.14553 66.3812C3.47958 72.1355 3.89311 74.7645 4.72609 74.7645V75.2667H0V74.7645C0.832973 74.7645 3.36143 71.1489 4.64338 66.3812L14.6981 29.3682L13.942 24.9727L18.0182 24.9609L25.6449 67.3147L37.0112 0H42.2926V0.502172C41.9618 0.502172 41.0165 1.11069 41.0165 4.77949L50.7168 97.0787C51.2839 100.886 51.867 100.866 52.2074 100.855L52.2079 100.855C52.2255 100.854 52.2425 100.854 52.2587 100.854V101.356H45.7013V100.854C45.7158 100.854 45.732 100.854 45.7496 100.855C46.1314 100.864 47.1748 100.891 46.7174 97.0787L37.0112 1.16976ZM76.539 84.0104V84.5007H71.4289L71.1749 65.9617C71.0272 66.2276 70.8677 66.458 70.6786 66.6648C67.7012 70.0027 63.0578 71.1312 59.3597 69.9614C44.1476 65.1642 50.1615 45.1659 64.5052 47.8481C65.6395 48.0608 67.01 48.4803 68.3097 49.461C69.2844 50.1936 70.4778 51.257 71.2576 52.7694L70.9445 48.1671C70.2238 42.4956 68.5519 35.8196 63.7963 35.7664C58.4617 35.7074 55.9037 39.2167 56.9021 40.3569C57.0262 40.4987 57.3747 40.5873 57.8473 40.5991L57.9182 40.9595C56.0396 41.3199 54.5391 41.6921 54.2909 41.7571C53.901 39.5475 57.7941 35.3943 63.7963 35.3943C73.5261 35.3943 74.8671 49.2187 74.8671 55.3157L75.2689 79.8571C75.2689 83.4196 76.2141 84.0104 76.5449 84.0104H76.539ZM71.2517 53.3366C70.655 51.83 69.4735 50.7253 68.3215 49.975C62.7684 46.3416 52.4596 51.1565 53.8715 61.3063C54.3323 64.6266 57.7705 67.74 61.1615 68.3899C64.6647 69.0339 68.0675 68.6203 70.3242 66.4107C70.655 66.0858 70.9327 65.755 71.1631 65.4005C71.1749 64.7447 71.1749 62.5765 71.1749 62.2516L71.2517 53.3425V53.3366ZM79.1147 60.491V60.9873H85.5599V60.4851C85.2291 60.4851 84.2839 59.8707 84.2839 56.2019L84.3252 42.2888L79.1029 44.2916L79.2683 44.7346C79.546 44.7346 80.2135 45.1246 80.4912 47.1273L80.4498 56.2078C80.4498 59.8766 79.5046 60.491 79.1147 60.491ZM121.419 47.4346C121.307 39.9492 126.789 35.9496 134.274 35.8373C141.812 35.7369 147.141 39.8961 147.235 47.4346C147.348 54.9199 142.125 59.8293 134.64 59.9416C127.102 60.042 121.52 54.973 121.419 47.4346ZM125.33 47.3932C125.407 52.9762 128.118 59.6639 134.629 59.5399C141.127 59.4631 143.401 53.0589 143.325 47.4759C143.248 41.8929 140.784 36.1682 134.286 36.2391C127.841 36.3277 125.253 41.8102 125.33 47.3873V47.3932ZM155.736 69.8137C155.406 69.8137 154.46 69.1993 154.46 65.5305C154.46 58.5237 155.518 46.0757 157.131 42.5724C158.3 40.0733 161.077 36.3454 164.243 37.4029C167.357 38.4605 169.667 43.7658 169.785 50.1167L170.169 70.5345C170.169 74.2033 169.224 74.8177 168.893 74.8177V75.3199H175.338V74.8177C175.007 74.8177 174.062 74.2033 174.062 70.5345L173.678 50.1167C173.642 43.0863 170.358 36.0087 164.302 36.0087C160.634 36.0087 158.135 39.2876 156.688 42.3479C155.742 44.5161 154.909 47.2396 154.466 50.6307V36.2332H149.35V36.7353C149.681 36.7353 150.626 37.4029 150.626 41.0186V65.5364C150.626 69.2052 149.681 69.8196 149.35 69.8196V70.3218H155.742V69.8196L155.736 69.8137ZM134.168 144.939V145.441H127.663V144.939C128.053 144.939 127.994 142.605 126.996 139.492L118.075 113.012C115.718 113.881 112.965 114.513 109.84 114.578C105.581 114.684 101.753 114.082 98.3617 112.894L95.0653 122.873C93.5647 127.097 93.677 129.212 95.1184 129.212V129.714H90.3923V129.212C91.2253 129.212 92.8381 127.711 94.5631 122.707L97.5051 112.581C89.5298 109.503 84.0594 103.146 81.0347 95.3418C77.2184 85.4696 80.0245 76.2356 83.5041 70.3336C84.1445 69.2474 85.1548 67.9187 86.1514 66.6081C87.968 64.2192 89.7388 61.8905 89.1399 61.2L89.6539 60.9105L93.5057 67.551L93.0449 67.7991C91.1298 66.1453 88.6987 69.763 87.1905 72.0072C86.8238 72.5529 86.5116 73.0175 86.2747 73.3053C84.4611 76.1292 82.9842 82.8406 83.0374 85.9482C83.1354 91.2434 84.604 95.5603 85.3834 97.8511C85.4961 98.1826 85.5945 98.4717 85.6722 98.7152C87.1845 102.898 89.9493 107.033 94.6222 110.312C95.4847 110.809 96.5303 111.329 97.7178 111.819L107.436 78.3743L106.378 75.314H110.602L121.744 110.088C123.31 109.261 124.55 108.398 125.785 107.536C129.885 104.67 135.379 94.6801 133.311 82.5807C131.746 73.7602 126.252 60.5028 110.017 59.1381C92.3241 57.9211 88.6142 50.7784 92.0583 42.9505C98.7516 28.996 114.058 39.6184 115.949 42.8382L114.56 49.1774H114.283C114.395 44.5633 99.7736 28.3166 92.141 43.7067C88.8505 50.8552 102.296 53.9037 105.085 54.2464C124.946 56.7159 128.928 61.6608 134.575 71.2907C137.417 76.1352 138.055 84.6012 137.287 89.3925C135.526 99.4241 129.643 105.616 126.819 107.937C126.766 107.978 126.711 108.021 126.654 108.065C125.688 108.81 124.151 109.997 122.093 111.151L130.493 137.376C131.941 141.547 133.329 144.939 134.162 144.939H134.168ZM149.504 124.946L149.693 99.5777H144.577V100.08C144.908 100.08 145.853 100.694 145.853 104.363C145.853 111.423 144.577 119.369 143.496 123.127C143.035 124.728 140.956 129.72 135.881 128.568C132.673 127.835 132.378 122.063 132.378 119.393L132.212 110.318H127.043V110.82C127.374 110.82 128.319 111.435 128.319 115.104L128.485 119.399C128.485 124.403 129.767 130.062 135.822 129.962C141.862 129.863 143.449 124.847 143.923 123.347L143.939 123.298C144.636 121.088 145.564 115.736 145.853 112.043L145.664 129.738H150.78V129.235C150.449 129.235 149.504 128.621 149.504 124.952V124.946ZM158.921 124.934L158.743 99.755C158.968 95.6431 162.241 90.4677 168.314 89.0912C172.963 88.0337 174.995 89.1148 177.104 91.2062C177.855 91.9506 177.465 93.9357 176.632 94.4378V94.94L179.52 93.8293L179.686 93.7761L184.152 92.0924L183.987 91.6493C183.191 91.8824 181.996 90.7159 181.284 90.0214C181.166 89.9063 181.061 89.804 180.974 89.7233C178.067 86.8107 173.814 86.8285 170.275 87.5788C165.384 88.6126 159.523 93.2031 158.743 96.3756V91.094H153.574V91.5961C153.964 91.5961 154.909 92.2106 154.909 95.8794L155.087 124.952C155.087 128.621 154.141 129.235 153.751 129.235V129.738H160.197V129.235C159.866 129.235 158.921 128.621 158.921 124.952V124.934ZM192.878 119.99C193.646 131.746 166.435 134.239 162.82 119.936C161.041 112.894 163.109 104.954 171.835 102.077C185.759 97.4804 192.192 105.297 193.994 112.191C191.785 112.191 187.46 112.534 184.95 113.042C184.926 113.048 184.896 113.054 184.873 113.06C184.436 113.136 183.993 113.231 183.538 113.343C181.476 113.845 179.715 114.584 178.682 115.31C178.682 115.31 178.676 115.31 178.67 115.316C176.283 116.734 173.761 117.053 171.876 116.894C171.161 116.841 166.429 116.362 165.815 116.037C165.915 117.065 166.069 118.04 166.276 118.962C169.572 131.977 187.425 130.352 191.596 123.209C191.599 123.202 191.603 123.196 191.607 123.19C191.61 123.185 191.613 123.181 191.616 123.177C191.624 123.167 191.631 123.156 191.637 123.144C192.228 122.187 192.576 121.012 192.576 119.735C192.576 118.459 192.234 117.313 191.661 116.356C192.393 117.39 192.783 118.625 192.872 119.99H192.878ZM165.827 115.606C166.435 115.931 171.173 116.463 171.888 116.516C173.772 116.622 176.283 116.338 178.67 114.873C181.47 113.142 187.744 112.085 190.083 111.919C187.856 106.23 184.329 98.6738 171.941 102.455C165.413 104.452 165.573 110.832 165.833 115.6L165.827 115.606ZM107.719 79.1541L117.609 111.866H117.603C115.819 112.481 113.668 113.065 110.98 113.597C106.242 114.259 101.983 113.408 98.6866 112.197L107.719 79.1541Z" fill="var(--fill-0, #A45D4E)"/>
<path d="M84.3149 40.3766V38.0046L81.0358 39.2771V41.6366L84.3149 40.3766Z" fill="var(--fill-0, #A45D4E)"/>
<path fill-rule="evenodd" clip-rule="evenodd" d="M65.6572 108.747L65.5321 107.741L65.5214 107.737L65.6423 108.736L65.6572 108.747Z" fill="var(--fill-0, #A45D4E)"/>
<path fill-rule="evenodd" clip-rule="evenodd" d="M70.1752 109.745L70.1765 109.745L66.7383 81.3932L61.5159 83.3369L61.6814 83.8391C61.959 83.8391 62.5734 84.229 62.8511 86.1727L65.5321 107.741L65.6572 108.747L65.6423 108.736C63.0702 106.914 61.6714 106.649 59.5605 106.271C55.1771 105.486 49.0332 105.267 44.183 110.395C37.5133 117.343 37.6906 127.9 49.2517 129.903C53.133 130.5 57.4633 130.169 59.915 129.135C62.9742 127.699 63.7975 126.313 64.9596 124.356C65.0026 124.284 65.046 124.211 65.09 124.137C65.8049 122.932 66.2834 120.155 66.6142 116.427L68.8059 129.714H73.9751V129.212H73.9869C73.6502 129.212 72.6282 128.656 72.0197 124.846L70.5959 113.107L70.5819 113.108L70.5842 113.107L70.1752 109.745ZM66.3887 114.907C66.2005 115.332 66.1124 115.737 66.0589 116.108L66.0585 116.122C66.0468 116.513 66.0348 116.916 65.9939 117.313C65.9584 117.647 65.9261 117.965 65.8952 118.271L65.8951 118.272L65.895 118.272C65.596 121.221 65.4204 122.951 63.7077 125.419C62.7624 126.866 61.4923 127.995 59.7023 128.751C56.7662 129.856 51.9279 130.104 48.5369 127.179C44.3662 123.008 43.0665 116.516 46.4102 111.618C50.1202 107.045 55.5788 106.177 59.4187 106.809C61.6636 107.175 63.2528 107.76 65.669 109.225C65.6803 109.23 65.6917 109.235 65.7032 109.24L66.3887 114.907Z" fill="var(--fill-0, #A45D4E)"/>
</g>
</g>
</svg>
