<svg width="134" height="91" viewBox="0 0 134 91" fill="none" xmlns="http://www.w3.org/2000/svg">
<path fill-rule="evenodd" clip-rule="evenodd" d="M25.4732 0.804009L17.8048 46.8478L18.6139 51.7327H15.7393L10.4617 20.8718L3.54144 45.6255C2.39484 49.5806 2.67946 51.3876 3.25276 51.3876V51.7327H0V51.3876C0.573298 51.3876 2.31352 48.9024 3.19583 45.6255L10.1161 20.1855L9.59563 17.1644L12.4011 17.1563L17.6503 46.2671L25.4732 0H29.1081V0.345156C28.8804 0.345156 28.2299 0.763403 28.2299 3.28507L34.9061 66.7247C35.2964 69.3412 35.6978 69.328 35.9321 69.3202L35.9324 69.3202C35.9445 69.3198 35.9562 69.3194 35.9674 69.3194V69.6646H31.4542V69.3194C31.4642 69.3194 31.4753 69.3197 31.4874 69.32C31.7502 69.3267 32.4683 69.345 32.1535 66.7247L25.4732 0.804009ZM52.6784 57.7425V58.0795H49.1614L48.9865 45.3372C48.8849 45.5199 48.7751 45.6783 48.645 45.8204C46.5957 48.1147 43.3999 48.8903 40.8546 48.0863C30.3848 44.789 34.5239 31.0437 44.3961 32.8872C45.1767 33.0334 46.12 33.3217 47.0145 33.9958C47.6854 34.4993 48.5067 35.2302 49.0434 36.2698L48.8279 33.1065C48.3319 29.2083 47.1812 24.6197 43.9082 24.5832C40.2366 24.5426 38.476 26.9546 39.1632 27.7383C39.2486 27.8358 39.4885 27.8967 39.8137 27.9048L39.8625 28.1525C38.5696 28.4002 37.5368 28.656 37.366 28.7007C37.0977 27.182 39.7772 24.3274 43.9082 24.3274C50.6048 24.3274 51.5277 33.8293 51.5277 38.0199L51.8042 54.8878C51.8042 57.3364 52.4548 57.7425 52.6825 57.7425H52.6784ZM49.0394 36.6596C48.6287 35.6241 47.8155 34.8648 47.0227 34.3491C43.2007 31.8518 36.1056 35.1612 37.0774 42.1374C37.3945 44.4195 39.7609 46.5594 42.0947 47.0061C44.5058 47.4487 46.8478 47.1645 48.401 45.6458C48.6287 45.4225 48.8198 45.1951 48.9784 44.9514C48.9865 44.5007 48.9865 43.0104 48.9865 42.7871L49.0394 36.6636V36.6596ZM54.4511 41.577V41.9181H58.8871V41.573C58.6594 41.573 58.0089 41.1507 58.0089 38.629L58.0373 29.0662L54.443 30.4427L54.5569 30.7473C54.748 30.7473 55.2074 31.0153 55.3985 32.3918L55.3701 38.6331C55.3701 41.1547 54.7195 41.577 54.4511 41.577ZM83.5674 32.603C83.4901 27.4581 87.2633 24.7091 92.4149 24.6319C97.603 24.5629 101.271 27.4216 101.336 32.603C101.413 37.7478 97.8185 41.1222 92.667 41.1994C87.4788 41.2684 83.6365 37.7844 83.5674 32.603ZM86.259 32.5746C86.3119 36.4119 88.1782 41.0085 92.6588 40.9233C97.1314 40.8705 98.6968 36.4687 98.6439 32.6314C98.5911 28.7941 96.8956 24.8593 92.423 24.908C87.9871 24.969 86.2062 28.7372 86.259 32.5705V32.5746ZM107.186 47.9847C106.959 47.9847 106.308 47.5624 106.308 45.0408C106.308 40.2248 107.036 31.669 108.146 29.2611C108.951 27.5434 110.862 24.9811 113.041 25.708C115.184 26.4349 116.774 30.0813 116.855 34.4465L117.12 48.4801C117.12 51.0018 116.469 51.4241 116.241 51.4241V51.7693H120.677V51.4241C120.45 51.4241 119.799 51.0018 119.799 48.4801L119.535 34.4465C119.51 29.6143 117.25 24.7497 113.082 24.7497C110.557 24.7497 108.837 27.0033 107.841 29.1068C107.191 30.597 106.617 32.469 106.312 34.7998V24.904H102.791V25.2491C103.019 25.2491 103.669 25.708 103.669 28.1931V45.0448C103.669 47.5665 103.019 47.9888 102.791 47.9888V48.334H107.191V47.9888L107.186 47.9847ZM92.3417 99.62V99.9652H87.8651V99.62C88.1335 99.62 88.0928 98.016 87.4056 95.8761L81.2661 77.6762C79.6438 78.2731 77.749 78.7076 75.5981 78.7523C72.6666 78.8254 70.0319 78.4112 67.698 77.595L65.4292 84.4535C64.3965 87.3568 64.4737 88.8105 65.4658 88.8105V89.1557H62.213V88.8105C62.7863 88.8105 63.8963 87.7791 65.0836 84.3398L67.1084 77.3798C61.6194 75.2642 57.8543 70.8949 55.7726 65.5308C53.146 58.7455 55.0773 52.3987 57.4722 48.3421C57.9129 47.5955 58.6083 46.6822 59.2942 45.7814C60.5445 44.1395 61.7633 42.5389 61.3511 42.0643L61.7048 41.8653L64.3558 46.4295L64.0387 46.6001C62.7206 45.4634 61.0474 47.9499 60.0094 49.4924C59.757 49.8675 59.5421 50.1868 59.3791 50.3846C58.1308 52.3256 57.1143 56.9385 57.1509 59.0744C57.2184 62.7139 58.2292 65.681 58.7656 67.2555C58.8432 67.4834 58.9109 67.6821 58.9644 67.8494C60.0052 70.7244 61.9081 73.5668 65.1243 75.8205C65.7179 76.1616 66.4376 76.5189 67.2548 76.856L73.9433 53.8686L73.2155 51.7652H76.1226L83.791 75.6662C84.8685 75.0977 85.7223 74.5049 86.5721 73.912C89.3939 71.9426 93.1752 65.076 91.7521 56.7598C90.6747 50.6973 86.8933 41.5851 75.7201 40.6471C63.5426 39.8106 60.9892 34.9013 63.3596 29.5209C67.9664 19.9297 78.5012 27.2307 79.8023 29.4438L78.8468 33.8009H78.6557C78.733 30.6295 68.6698 19.4627 63.4166 30.0407C61.1518 34.9541 70.4059 37.0494 72.3251 37.2849C85.9948 38.9823 88.7352 42.381 92.6223 48.9999C94.578 52.3296 95.0171 58.1486 94.4885 61.4417C93.2769 68.3367 89.2272 72.5923 87.2837 74.1881C87.2472 74.2162 87.2093 74.2454 87.1701 74.2756C86.5054 74.788 85.4476 75.6034 84.0309 76.3971L89.8127 94.4224C90.8088 97.2892 91.7643 99.62 92.3376 99.62H92.3417ZM102.897 85.8788L103.027 68.4423H99.5059V68.7875C99.7336 68.7875 100.384 69.2098 100.384 71.7314C100.384 76.5839 99.5059 82.0455 98.7618 84.6281C98.4447 85.7285 97.0135 89.1598 93.5208 88.3679C91.313 87.8644 91.1097 83.8971 91.1097 82.0617L90.9959 75.8246H87.4382V76.1697C87.6659 76.1697 88.3164 76.592 88.3164 79.1137L88.4303 82.0658C88.4303 85.5052 89.3126 89.3953 93.4802 89.3262C97.6375 89.258 98.7295 85.8106 99.056 84.7797L99.0668 84.7458C99.5466 83.2271 100.185 79.5482 100.384 77.0103L100.254 89.1719H103.775V88.8268C103.547 88.8268 102.897 88.4045 102.897 85.8828V85.8788ZM109.378 85.8706L109.256 68.5641C109.411 65.7379 111.663 62.1808 115.843 61.2346C119.043 60.5078 120.441 61.2509 121.893 62.6884C122.409 63.2 122.141 64.5644 121.568 64.9095V65.2547L123.556 64.4913L123.67 64.4547L126.744 63.2975L126.63 62.9929C126.082 63.1531 125.26 62.3514 124.77 61.874C124.688 61.7949 124.616 61.7246 124.556 61.6691C122.556 59.6672 119.628 59.6794 117.193 60.1951C113.826 60.9057 109.793 64.0609 109.256 66.2414V62.6112H105.698V62.9564C105.967 62.9564 106.617 63.3787 106.617 65.9003L106.739 85.8828C106.739 88.4045 106.089 88.8268 105.82 88.8268V89.1719H110.256V88.8268C110.029 88.8268 109.378 88.4045 109.378 85.8828V85.8706ZM132.749 82.4719C133.278 90.5526 114.55 92.2662 112.062 82.4353C110.838 77.595 112.261 72.1375 118.266 70.16C127.85 67.0008 132.277 72.373 133.518 77.1118C131.997 77.1118 129.021 77.3473 127.293 77.6965C127.276 77.7006 127.256 77.7047 127.24 77.7087C126.939 77.7615 126.634 77.8265 126.321 77.9036C124.902 78.2488 123.69 78.7564 122.979 79.2558C122.979 79.2558 122.975 79.2558 122.97 79.2599C121.328 80.2344 119.592 80.4537 118.295 80.3441C117.803 80.3075 114.546 79.9786 114.123 79.7553C114.192 80.4618 114.298 81.1318 114.44 81.7653C116.709 90.7109 128.996 89.5942 131.867 84.6849C131.869 84.6802 131.872 84.6758 131.875 84.6716C131.877 84.6685 131.879 84.6656 131.881 84.6626C131.886 84.6555 131.891 84.6483 131.895 84.6403C132.302 83.9824 132.542 83.1744 132.542 82.2972C132.542 81.4202 132.306 80.6324 131.911 79.9746C132.416 80.6852 132.684 81.5339 132.745 82.4719H132.749ZM114.131 79.4589C114.55 79.6822 117.811 80.0477 118.303 80.0842C119.6 80.1573 121.328 79.9624 122.97 78.9553C124.898 77.7656 129.216 77.0387 130.826 76.925C129.293 73.0146 126.866 67.821 118.339 70.4198C113.846 71.7923 113.956 76.1778 114.135 79.4548L114.131 79.4589ZM74.1385 54.4046L80.9449 76.8885H80.9408C79.7129 77.3108 78.2329 77.7128 76.3829 78.0782C73.122 78.533 70.1904 77.9483 67.9216 77.1159L74.1385 54.4046Z" fill="#2A0E0E"/>
<path d="M58.0302 27.7519V26.1215L55.7734 26.9961V28.6179L58.0302 27.7519Z" fill="#2A0E0E"/>
<path fill-rule="evenodd" clip-rule="evenodd" d="M45.1889 74.7444L45.1029 74.053L45.0954 74.0501L45.1787 74.7372L45.1889 74.7444Z" fill="#2A0E0E"/>
<path fill-rule="evenodd" clip-rule="evenodd" d="M48.2985 75.4309L48.2994 75.4307L45.933 55.9436L42.3387 57.2796L42.4525 57.6247C42.6436 57.6247 43.0665 57.8927 43.2576 59.2287L45.1029 74.053L45.1889 74.7444L45.1787 74.7372C43.4084 73.4849 42.4457 73.3024 40.9929 73.043C37.9759 72.503 33.7474 72.3527 30.4092 75.8774C25.8188 80.6527 25.9407 87.9091 33.8978 89.2856C36.5691 89.6958 39.5495 89.4684 41.2368 88.7578C43.3424 87.771 43.909 86.8182 44.7088 85.4733C44.7384 85.4235 44.7683 85.3733 44.7986 85.3224C45.2906 84.4941 45.6199 82.5856 45.8476 80.0233L47.3561 89.1557H50.9138V88.8105H50.9219C50.6902 88.8105 49.9867 88.4288 49.568 85.8097L48.5881 77.7412L48.5784 77.7423L48.58 77.7412L48.2985 75.4309ZM45.6924 78.9783C45.5629 79.2708 45.5022 79.5493 45.4654 79.804L45.4651 79.8136C45.4571 80.0827 45.4488 80.3595 45.4207 80.6324C45.3963 80.8618 45.374 81.0807 45.3527 81.2906L45.3526 81.2912L45.3526 81.2915C45.1468 83.3182 45.026 84.5076 43.8472 86.2036C43.1966 87.1985 42.3224 87.974 41.0905 88.4938C39.0697 89.2532 35.7397 89.4237 33.4058 87.4137C30.5353 84.5469 29.6407 80.0842 31.9421 76.7179C34.4955 73.575 38.2524 72.9781 40.8953 73.4125C42.4403 73.6643 43.5341 74.0663 45.1971 75.0734C45.2049 75.0766 45.2127 75.0799 45.2206 75.0831L45.6924 78.9783Z" fill="#2A0E0E"/>
</svg>
